<?xml version="1.0" encoding="utf-8"?>
<!-- Generator: Adobe Illustrator 24.0.1, SVG Export Plug-In . SVG Version: 6.00 Build 0)  -->
<svg version="1.1" id="stackmateword" xmlns="http://www.w3.org/2000/svg" xmlns:xlink="http://www.w3.org/1999/xlink" x="0px"
	 y="0px" viewBox="0 0 1096.46 144.71" style="enable-background:new 0 0 1096.46 144.71;" xml:space="preserve">
<style type="text/css">
	.st0{fill:#FFFFFF;}
</style>
<g>
	<g>
		<path class="st0" d="M34.32,110.79c0,4.49,4.22,7.52,26,7.52c20.33,0,23.36-1.32,23.36-4.75c0-3.96-3.04-4.49-24.68-5.15
			c-41.71-1.32-57.69-8.18-57.69-29.7c0-20.33,19.93-29.04,56.37-29.04c36.04,0,56.37,8.71,56.37,32.34H79.73
			c0-4.88-7.92-5.94-24.68-5.94c-16.1,0-19.41,0.79-19.41,4.36s3.3,3.43,23.37,4.22c36.43,1.45,59.01,3.96,59.01,28.12
			c0,25.48-21.12,31.94-59.01,31.94C21.12,144.71,0,138.24,0,110.79H34.32z"/>
		<path class="st0" d="M161.31,90.59v16.37c0,7.52,2.9,11.35,12.14,11.35c7.13,0,11.09,0,20.2-1.32v25.74
			c-7.52,1.32-16.9,1.98-27.33,1.98c-24.55,0-36.7-7.52-36.7-24.68V90.59h-15.97v-26.4h15.97v-13.2l31.68-7.92v21.12h32.34v26.4
			H161.31z"/>
		<path class="st0" d="M297.27,104.19v39.21h-31.68v-9.64c-12.28,8.98-26,10.96-39.73,10.96c-18.08,0-33.92-6.47-33.92-23.63
			c0-20.59,23.76-26,46.86-26c11.09,0,19.54,1.45,26.8,4.09c0-9.5-10.03-9.9-20.59-9.9c-10.16,0-21.78,0.92-36.3,4.09l-10.3-22.44
			c15.84-5.15,33-8.05,47.65-8.05C278.52,62.87,297,73.96,297.27,104.19z M265.58,114.22c-5.02-1.32-11.88-1.98-20.99-1.98
			c-14.65,0-20.99,1.32-20.99,6.34c0,4.36,3.7,5.02,11.75,5.02c10.69,0,22.31-2.64,30.23-6.07V114.22z"/>
		<path class="st0" d="M349.4,62.87c31.28,0,50.95,10.03,53.59,34.98h-32.34c-2.51-6.73-9.9-8.58-21.25-8.58
			c-14.13,0-22.18,2.9-22.18,14.52s8.05,14.52,22.18,14.52c11.35,0,18.74-1.85,21.25-8.58H403c-2.64,24.95-22.31,34.98-53.59,34.98
			c-33.66,0-53.86-11.62-53.86-40.92S315.74,62.87,349.4,62.87z"/>
		<path class="st0" d="M477.05,97.06l43.3,46.33h-40.92l-26.53-29.83l-18.61,13.6v16.24H402.6V37.79h31.68v54.65l37.23-28.25h48.84
			L477.05,97.06z"/>
		<path class="st0" d="M661.45,143.39h-34.32V99.44l-25.21,43.96h-22.44l-25.21-43.96v43.96h-34.32v-92.4h42.24l28.51,52.8
			l28.51-52.8h42.24V143.39z"/>
		<path class="st0" d="M765.07,104.19v39.21h-31.68v-9.64c-12.28,8.98-26,10.96-39.73,10.96c-18.08,0-33.92-6.47-33.92-23.63
			c0-20.59,23.76-26,46.86-26c11.09,0,19.54,1.45,26.8,4.09c0-9.5-10.03-9.9-20.59-9.9c-10.16,0-21.78,0.92-36.3,4.09l-10.3-22.44
			c15.84-5.15,33-8.05,47.65-8.05C746.33,62.87,764.81,73.96,765.07,104.19z M733.39,114.22c-5.02-1.32-11.88-1.98-20.99-1.98
			c-14.65,0-20.99,1.32-20.99,6.34c0,4.36,3.7,5.02,11.75,5.02c10.69,0,22.31-2.64,30.23-6.07V114.22z"/>
		<path class="st0" d="M811.01,90.59v16.37c0,7.52,2.9,11.35,12.14,11.35c7.13,0,11.09,0,20.2-1.32v25.74
			c-7.52,1.32-16.9,1.98-27.33,1.98c-24.55,0-36.7-7.52-36.7-24.68V90.59h-15.97v-26.4h15.97v-13.2l31.68-7.92v21.12h32.34v26.4
			H811.01z"/>
		<path class="st0" d="M916.74,113.69h31.02c-3.96,20.99-20.99,31.02-53.59,31.02c-31.02,0-52.54-11.62-52.54-40.92
			s21.52-40.92,53.86-40.92c32.6,0,53.59,11.62,53.59,46.2h-75.11c2.64,8.45,11.48,10.56,20.2,10.56
			C905.65,119.63,910.27,118.84,916.74,113.69z M875.42,93.23h39.87c-3.56-7.13-11.48-7.92-19.93-7.92S878.98,86.1,875.42,93.23z"/>
	</g>
	<g>
		<path class="st0" d="M970.74,30.98h42.76v35.88h-14.13l-1.79-9.51c-5.56,6.5-14.22,10.45-28.06,10.45
			c-24.3,0-38.61-11.02-38.61-34C930.9,10.92,945.22,0,972.34,0c26.37,0,40.12,9.23,41.16,27.22h-25.05
			c-0.94-3.39-5.75-6.5-16.1-6.5c-14.5,0-16.95,6.12-16.95,14.03c0,8,2.54,15.16,16.95,15.16c9.42,0,15.16-1.32,16.1-5.74h-17.71
			V30.98z"/>
		<path class="st0" d="M1013.58,33.81c0-22.89,12.43-33.81,41.44-33.81c28.91,0,41.44,11.02,41.44,33.81c0,22.89-12.53,34-41.44,34
			C1026.02,67.81,1013.58,56.79,1013.58,33.81z M1071.98,33.81c0-6.88-2.45-13.09-16.95-13.09s-16.95,6.12-16.95,13.09
			c0,7.06,2.54,13.28,16.95,13.28S1071.98,40.78,1071.98,33.81z"/>
	</g>
</g>
<g>
</g>
<g>
</g>
<g>
</g>
<g>
</g>
<g>
</g>
<g>
</g>
<g>
</g>
<g>
</g>
<g>
</g>
<g>
</g>
<g>
</g>
<g>
</g>
<g>
</g>
<g>
</g>
<g>
</g>
</svg>
